<?xml version="1.0" encoding="UTF-8" standalone="no"?>
<svg
   xmlns:dc="http://purl.org/dc/elements/1.1/"
   xmlns:cc="http://creativecommons.org/ns#"
   xmlns:rdf="http://www.w3.org/1999/02/22-rdf-syntax-ns#"
   xmlns:svg="http://www.w3.org/2000/svg"
   xmlns="http://www.w3.org/2000/svg"
   version="1.1"
   id="svg2"
   viewBox="0 0 256 256"
   height="256"
   width="256">
  <defs
     id="defs4" />
  <metadata
     id="metadata7">
    <rdf:RDF>
      <cc:Work
         rdf:about="">
        <dc:format>image/svg+xml</dc:format>
        <dc:type
           rdf:resource="http://purl.org/dc/dcmitype/StillImage" />
        <dc:title></dc:title>
      </cc:Work>
    </rdf:RDF>
  </metadata>
  <g
     transform="translate(0,-796.36219)"
     id="layer1">
    <g
       id="g4274">
      <g
         transform="translate(-347,-95.142937)"
         id="g4197">
        <circle
           r="118"
           cy="1019.5051"
           cx="475"
           id="path3351-9"
           style="fill:#c3391d;fill-opacity:1" />
        <g
           id="flowRoot4169-7"
           style="font-style:normal;font-variant:normal;font-weight:bold;font-stretch:normal;font-size:40px;line-height:125%;font-family:'Halis R';-inkscape-font-specification:'Halis R Bold';letter-spacing:0px;word-spacing:0px;fill:#f0f1f2;fill-opacity:1;stroke:none;stroke-width:1px;stroke-linecap:butt;stroke-linejoin:miter;stroke-opacity:1"
           transform="matrix(1.1938325,0,0,1.1938325,302.15027,870.2606)">
          <path
             id="path4205-2"
             style="font-style:normal;font-variant:normal;font-weight:500;font-stretch:normal;font-size:180px;font-family:'Halis R';-inkscape-font-specification:'Halis R Medium';fill:#f0f1f2;fill-opacity:1"
             d="m 169.89484,135.31401 -21.78,-48.060003 c -0.54,-1.26 -1.8,-2.16 -3.24,-2.16 -1.44,0 -2.7,0.9 -3.24,2.16 l -21.78,48.060003 -19.26,-45.900003 c -0.719996,-1.62 -2.159996,-2.7 -3.959996,-2.7 l -17.64,0 c -1.44,0 -2.34,1.44 -1.8,2.7 l 38.879996,87.120003 c 0.54,1.08 1.62,1.8 2.88,1.8 1.26,0 2.34,-0.72 2.88,-1.8 l 23.04,-48.42 23.04,48.42 c 0.54,1.08 1.62,1.8 2.88,1.8 1.26,0 2.34,-0.72 2.7,-1.8 l 38.88,-87.120003 c 0.54,-1.26 -0.36,-2.7 -1.62,-2.7 l -17.64,0 c -1.8,0 -3.24,1.08 -3.96,2.7 l -19.26,45.900003 z" />
        </g>
      </g>
    </g>
  </g>
</svg>
