<?xml version="1.0" standalone="no"?>
<!DOCTYPE svg PUBLIC "-//W3C//DTD SVG 20010904//EN"
 "http://www.w3.org/TR/2001/REC-SVG-20010904/DTD/svg10.dtd">
<svg version="1.0" xmlns="http://www.w3.org/2000/svg"
 width="700.000000pt" height="700.000000pt" viewBox="0 0 700.000000 700.000000"
 preserveAspectRatio="xMidYMid meet">
<metadata>
Created by potrace 1.11, written by Peter Selinger 2001-2013
</metadata>
<g transform="translate(0.000000,700.000000) scale(0.100000,-0.100000)"
fill="#000000" stroke="none">
<path d="M3377 6724 c-1 -1 -48 -4 -105 -8 -338 -19 -773 -127 -1077 -266
-194 -89 -292 -143 -468 -258 -549 -359 -975 -880 -1222 -1498 -76 -189 -154
-462 -180 -629 -5 -27 -10 -57 -11 -65 -2 -8 -6 -37 -9 -65 -4 -27 -8 -61 -10
-75 -11 -73 -19 -222 -19 -355 0 -542 131 -1066 383 -1530 30 -55 59 -110 65
-122 6 -13 14 -23 19 -23 4 0 7 -5 7 -10 0 -18 150 -232 246 -351 137 -171
359 -391 503 -499 18 -14 45 -34 59 -46 111 -87 368 -246 512 -316 91 -44 236
-108 245 -108 4 0 21 -6 38 -14 96 -44 414 -134 549 -156 34 -5 74 -12 87 -15
209 -41 673 -52 881 -20 14 2 45 7 70 10 25 3 68 10 95 15 28 5 64 11 80 14
17 2 53 9 80 16 28 6 57 13 65 15 111 23 348 102 487 161 483 205 876 494
1223 900 345 402 621 992 705 1504 4 25 9 52 10 61 2 9 6 40 10 70 3 30 8 61
10 69 24 86 24 536 0 735 -5 42 -17 127 -20 145 -1 8 -6 35 -10 60 -8 50 -61
278 -76 325 -5 17 -20 64 -33 105 -86 271 -237 578 -403 820 -251 365 -575
676 -951 913 -86 54 -389 212 -477 249 -93 38 -319 115 -362 123 -13 2 -26 6
-30 8 -9 6 -219 53 -273 62 -19 3 -42 7 -50 10 -8 2 -42 6 -75 10 -33 3 -67 8
-75 10 -43 11 -482 28 -493 19z m183 -1939 c30 -15 52 -56 143 -260 25 -55 56
-125 70 -155 14 -30 90 -199 170 -375 80 -176 191 -421 247 -545 56 -124 107
-238 112 -253 6 -16 14 -25 19 -20 4 4 62 139 129 298 66 160 125 299 130 310
5 11 88 207 184 435 213 510 201 483 246 509 36 20 51 21 349 21 298 0 312 -1
331 -20 11 -11 20 -29 20 -40 0 -11 -39 -107 -86 -213 -48 -105 -121 -271
-164 -367 -43 -96 -94 -210 -114 -253 -20 -43 -36 -80 -36 -82 0 -2 -13 -32
-29 -67 -16 -35 -103 -229 -194 -433 -91 -203 -222 -498 -292 -655 -70 -157
-135 -301 -143 -320 -9 -19 -16 -37 -17 -40 -3 -8 -35 -80 -69 -155 -18 -38
-57 -125 -86 -191 -61 -139 -82 -160 -150 -149 -56 9 -57 11 -230 380 -21 44
-66 139 -100 210 -35 72 -110 229 -167 350 -152 319 -232 487 -284 595 l-47
95 -70 -145 c-38 -80 -84 -176 -102 -215 -18 -38 -66 -140 -107 -225 -42 -85
-87 -180 -100 -210 -14 -30 -57 -120 -95 -200 -39 -80 -82 -170 -95 -200 -14
-30 -59 -124 -99 -209 -41 -84 -74 -157 -74 -161 0 -17 -72 -70 -95 -70 -71 0
-85 18 -181 235 -37 82 -78 175 -91 205 -14 30 -51 114 -83 185 -32 72 -69
155 -83 185 -13 30 -53 118 -87 195 -34 77 -70 158 -80 180 -10 22 -46 103
-80 180 -34 77 -74 165 -87 195 -14 30 -61 136 -105 235 -44 99 -88 198 -98
220 -28 63 -110 245 -132 295 -11 25 -28 63 -38 85 -10 22 -28 63 -40 90 -12
28 -32 73 -45 100 -13 28 -42 93 -65 145 -23 52 -50 114 -61 137 -24 53 -24
78 1 103 19 19 33 20 333 20 351 0 359 -1 400 -68 13 -21 112 -251 222 -512
359 -859 416 -995 421 -999 2 -2 11 13 20 35 9 21 32 72 50 112 19 41 34 75
34 77 0 1 20 45 44 96 24 52 64 139 88 194 25 55 58 127 73 160 37 82 336 740
389 859 41 89 104 118 176 81z"/>
</g>
</svg>
