<?xml version="1.0" encoding="UTF-8" standalone="no"?>
<svg
   xmlns:dc="http://purl.org/dc/elements/1.1/"
   xmlns:cc="http://creativecommons.org/ns#"
   xmlns:rdf="http://www.w3.org/1999/02/22-rdf-syntax-ns#"
   xmlns:svg="http://www.w3.org/2000/svg"
   xmlns="http://www.w3.org/2000/svg"
   version="1.1"
   id="svg2"
   viewBox="0 0 16 16">
  <metadata
     id="metadata10">
    <rdf:RDF>
      <cc:Work
         rdf:about="">
        <dc:format>image/svg+xml</dc:format>
        <dc:type
           rdf:resource="http://purl.org/dc/dcmitype/StillImage" />
        <dc:title></dc:title>
      </cc:Work>
    </rdf:RDF>
  </metadata>
  <defs
     id="defs8" />
  <g
     id="layer1"
     transform="matrix(0.06586046,0,0,0.06586046,-2.0612199,-50.061212)">
    <g
       id="g4274">
      <g
         id="g4197"
         transform="translate(-347,-95.142937)">
        <path
           id="path3351-9"
           d="M 499.76571,858.7244 A 118,118 0 0 0 381.75456,976.73555 118,118 0 0 0 499.76571,1094.7199 118,118 0 0 0 617.77686,976.73555 118,118 0 0 0 499.76571,858.7244 Z m 0.1073,70.3399 c 1.71913,0 3.2184,1.07115 3.86306,2.57538 l 25.99518,57.38255 22.99058,-54.78035 c 0.85957,-1.93401 2.59945,-3.24605 4.74834,-3.24605 l 21.05906,0 c 1.50423,0 2.5762,1.74182 1.93153,3.24605 l -46.41039,104.00752 c -0.42978,1.2894 -1.74181,2.1462 -3.24604,2.1462 -1.50423,0 -2.78917,-0.8568 -3.43384,-2.1462 l -27.49748,-57.81175 -27.49748,57.81175 c -0.64467,1.2894 -1.95643,2.1462 -3.46066,2.1462 -1.50422,0 -2.78916,-0.8568 -3.43383,-2.1462 L 419.07066,934.24188 c -0.64468,-1.50423 0.42702,-3.24605 2.14614,-3.24605 l 21.05905,0 c 2.14889,0 3.86196,1.31204 4.72152,3.24605 l 22.99058,54.78035 26.022,-57.38255 c 0.64467,-1.50423 2.14395,-2.57538 3.86306,-2.57538 z"
           style="fill:#828282;fill-opacity:1" />
        <g
           transform="matrix(1.1938325,0,0,1.1938325,302.15027,870.2606)"
           style="font-style:normal;font-variant:normal;font-weight:bold;font-stretch:normal;font-size:40px;line-height:125%;font-family:'Halis R';-inkscape-font-specification:'Halis R Bold';letter-spacing:0px;word-spacing:0px;fill:#f0f1f2;fill-opacity:1;stroke:none;stroke-width:1px;stroke-linecap:butt;stroke-linejoin:miter;stroke-opacity:1"
           id="flowRoot4169-7" />
      </g>
    </g>
  </g>
</svg>
